# xmcd CD Database Entry
#
# Track frame offsets:
# 150
# 22698
# 45197
# 67695
# 90191
# 112722
# 135223
# 157714
# 180218
# 202709
# 225214
# 247715
# 270207
# 292708
# 315209
# 337715
#
# Disc length: 4799 seconds
#
# Revision: 2
# Processed by: cddbd v1.4b42PL1 Copyright (c) Steve Scherf et al.
# Submitted via: tcd 2.0b
#
DISCID=8312bd10
DTITLE=Stephans Mega Mix
DYEAR=1900
DGENRE=
TTITLE0=Spur 1
TTITLE1=Spur 2
TTITLE2=Spur 3
TTITLE3=Spur 4
TTITLE4=Spur 5
TTITLE5=Spur 6
TTITLE6=Spur 7
TTITLE7=Spur 8
TTITLE8=Spur 9
TTITLE9=Spur 10
TTITLE10=Spur 11
TTITLE11=Spur 12
TTITLE12=Spur 13
TTITLE13=Spur 14
TTITLE14=Spur 15
TTITLE15=Spur 16
EXTD=
EXTT0=
EXTT1=
EXTT2=
EXTT3=
EXTT4=
EXTT5=
EXTT6=
EXTT7=
EXTT8=
EXTT9=
EXTT10=
EXTT11=
EXTT12=
EXTT13=
EXTT14=
EXTT15=
PLAYORDER=
